<svg width="99" height="94" viewBox="0 0 99 94" fill="none" xmlns="http://www.w3.org/2000/svg">
<mask id="mask0_2_12203" style="mask-type:luminance" maskUnits="userSpaceOnUse" x="0" y="0" width="99" height="94">
<path d="M98.9843 0.656738H0.783203V93.5035H98.9843V0.656738Z" fill="white"/>
</mask>
<g mask="url(#mask0_2_12203)">
<mask id="mask1_2_12203" style="mask-type:luminance" maskUnits="userSpaceOnUse" x="1" y="1" width="98" height="92">
<path d="M1.32812 1.13916H98.137V92.8157H1.32812V1.13916Z" fill="white"/>
</mask>
<g mask="url(#mask1_2_12203)">
<mask id="mask2_2_12203" style="mask-type:luminance" maskUnits="userSpaceOnUse" x="1" y="1" width="98" height="92">
<path d="M20.3757 1.13916H79.0464C84.0993 1.13916 88.9439 3.21603 92.5153 6.91129C96.0867 10.6065 98.094 15.6191 98.094 20.8472V73.1077C98.094 78.3324 96.0867 83.3449 92.5153 87.0436C88.9439 90.7388 84.0993 92.8157 79.0464 92.8157H20.3757C15.3261 92.8157 10.4816 90.7388 6.90683 87.0436C3.3354 83.3449 1.32812 78.3324 1.32812 73.1077V20.8472C1.32812 15.6191 3.3354 10.6065 6.90683 6.91129C10.4816 3.21603 15.3261 1.13916 20.3757 1.13916Z" fill="white"/>
</mask>
<g mask="url(#mask2_2_12203)">
<path d="M1.32812 1.13916H98.2395V92.8157H1.32812V1.13916Z" fill="black"/>
</g>
</g>
</g>
<path d="M62.9579 58.2103H40.4711C40.2132 58.2206 39.9619 58.1761 39.7171 58.0769C39.4757 57.9811 39.2608 57.8408 39.0723 57.6526C38.8871 57.4678 38.7416 57.2489 38.6424 57.0025C38.5399 56.7527 38.4903 56.4961 38.4903 56.2258C38.4903 55.9589 38.5399 55.6989 38.6424 55.4526C38.7416 55.2028 38.8871 54.9872 39.0723 54.799C39.2608 54.6143 39.4757 54.4706 39.7171 54.3748C39.9619 54.279 40.2132 54.2345 40.4711 54.2448H62.9579C63.2059 54.2448 63.444 54.2003 63.6788 54.1147C63.9103 54.0326 64.1252 53.9094 64.317 53.7486C64.5121 53.5878 64.6742 53.3996 64.8031 53.1841C64.9354 52.9651 65.0247 52.7324 65.0809 52.4827L69.1715 33.4453C69.2046 33.281 69.2211 33.1134 69.2211 32.9457C69.2211 32.7781 69.2013 32.6104 69.1649 32.4496C69.1285 32.2854 69.0723 32.128 69.0029 31.974C68.9301 31.8235 68.8441 31.6832 68.7416 31.5531C68.6391 31.4197 68.5267 31.3034 68.3977 31.1973C68.272 31.0947 68.1332 31.0057 67.9877 30.9339C67.8422 30.8586 67.6867 30.8038 67.528 30.7662C67.3726 30.732 67.2105 30.7115 67.0485 30.7115H36.3805C36.2251 30.7115 36.0697 30.7286 35.9175 30.7628L34.4096 23.9916C34.3567 23.7452 34.2641 23.5125 34.1318 23.297C33.9996 23.0814 33.8375 22.8967 33.6457 22.7393C33.4539 22.5785 33.2423 22.4587 33.0108 22.3766C32.776 22.2911 32.5379 22.25 32.2932 22.25H26.1589C25.8712 22.25 25.5935 22.3082 25.3289 22.4211C25.0611 22.534 24.8263 22.6982 24.6246 22.9069C24.4195 23.1191 24.2608 23.362 24.1517 23.6391C24.0425 23.9129 23.9863 24.2003 23.9863 24.4979C23.9863 24.7956 24.0425 25.083 24.1517 25.3568C24.2608 25.6339 24.4195 25.8768 24.6246 26.0855C24.8263 26.2977 25.0611 26.4585 25.3289 26.5748C25.5935 26.6877 25.8712 26.7459 26.1589 26.7459H30.5637L36.106 51.5965C35.6596 52.0447 35.2859 52.5511 34.9883 53.1157C34.6874 53.6802 34.4724 54.2756 34.3435 54.9051C34.2145 55.5381 34.1781 56.1745 34.2343 56.8143C34.2906 57.4576 34.4361 58.0769 34.6709 58.6722C34.9056 59.2676 35.2198 59.8184 35.61 60.318C36.0035 60.8175 36.4599 61.2452 36.9757 61.6045C37.4916 61.9637 38.0472 62.2375 38.6424 62.4256C39.241 62.6138 39.8494 62.7062 40.4711 62.7062H62.9579C63.2456 62.7062 63.5234 62.648 63.7879 62.5351C64.0558 62.4188 64.2906 62.258 64.4923 62.0459C64.6973 61.8371 64.8527 61.5942 64.9652 61.3171C65.0743 61.0433 65.1305 60.7559 65.1305 60.4583C65.1305 60.1606 65.0743 59.8732 64.9652 59.596C64.8527 59.3223 64.6973 59.0794 64.4923 58.8672C64.2906 58.6585 64.0558 58.4943 63.7879 58.3814C63.5234 58.2685 63.2456 58.2103 62.9579 58.2103Z" fill="white"/>
<path d="M46.6024 68.3243C46.6024 68.7691 46.5198 69.2002 46.3544 69.6142C46.1891 70.0282 45.9543 70.3909 45.6501 70.7057C45.3425 71.0239 44.992 71.2668 44.5919 71.4379C44.1917 71.609 43.7784 71.6945 43.3452 71.6945C42.912 71.6945 42.4986 71.609 42.0985 71.4379C41.6983 71.2668 41.3478 71.0239 41.0403 70.7057C40.736 70.3909 40.5013 70.0282 40.3359 69.6142C40.1706 69.2002 40.0879 68.7691 40.0879 68.3243C40.0879 67.8761 40.1706 67.445 40.3359 67.0344C40.5013 66.6204 40.736 66.2543 41.0403 65.9395C41.3478 65.6247 41.6983 65.3784 42.0985 65.2073C42.4986 65.0362 42.912 64.9507 43.3452 64.9507C43.7784 64.9507 44.1917 65.0362 44.5919 65.2073C44.992 65.3784 45.3425 65.6247 45.6501 65.9395C45.9543 66.2543 46.1891 66.6204 46.3544 67.0344C46.5198 67.445 46.6024 67.8761 46.6024 68.3243Z" fill="white"/>
<path d="M61.8075 68.3243C61.8075 68.7691 61.7248 69.2002 61.5595 69.6142C61.3942 70.0282 61.1594 70.3909 60.8551 70.7057C60.5476 71.0239 60.1971 71.2668 59.7969 71.4379C59.3968 71.609 58.9834 71.6945 58.5502 71.6945C58.117 71.6945 57.7037 71.609 57.3036 71.4379C56.9034 71.2668 56.5529 71.0239 56.2453 70.7057C55.9411 70.3909 55.7063 70.0282 55.541 69.6142C55.3756 69.2002 55.293 68.7691 55.293 68.3243C55.293 67.8761 55.3756 67.445 55.541 67.0344C55.7063 66.6204 55.9411 66.2543 56.2453 65.9395C56.5529 65.6247 56.9034 65.3784 57.3036 65.2073C57.7037 65.0362 58.117 64.9507 58.5502 64.9507C58.9834 64.9507 59.3968 65.0362 59.7969 65.2073C60.1971 65.3784 60.5476 65.6247 60.8551 65.9395C61.1594 66.2543 61.3942 66.6204 61.5595 67.0344C61.7248 67.445 61.8075 67.8761 61.8075 68.3243Z" fill="white"/>
</svg>
