<svg width="99" height="94" viewBox="0 0 99 94" fill="none" xmlns="http://www.w3.org/2000/svg">
<mask id="mask0_2_12278" style="mask-type:luminance" maskUnits="userSpaceOnUse" x="0" y="0" width="99" height="94">
<path d="M98.9843 0.649414H0.783203V93.4961H98.9843V0.649414Z" fill="white"/>
</mask>
<g mask="url(#mask0_2_12278)">
<mask id="mask1_2_12278" style="mask-type:luminance" maskUnits="userSpaceOnUse" x="1" y="1" width="98" height="93">
<path d="M1.32812 1.38525H98.137V93.0618H1.32812V1.38525Z" fill="white"/>
</mask>
<g mask="url(#mask1_2_12278)">
<mask id="mask2_2_12278" style="mask-type:luminance" maskUnits="userSpaceOnUse" x="1" y="1" width="98" height="93">
<path d="M20.3757 1.38525H79.0464C84.0993 1.38525 88.9439 3.46212 92.5153 7.15738C96.0867 10.8526 98.094 15.8652 98.094 21.0933V73.3538C98.094 78.5785 96.0867 83.591 92.5153 87.2897C88.9439 90.9849 84.0993 93.0618 79.0464 93.0618H20.3757C15.3261 93.0618 10.4816 90.9849 6.90683 87.2897C3.3354 83.591 1.32812 78.5785 1.32812 73.3538V21.0933C1.32812 15.8652 3.3354 10.8526 6.90683 7.15738C10.4816 3.46212 15.3261 1.38525 20.3757 1.38525Z" fill="white"/>
</mask>
<g mask="url(#mask2_2_12278)">
<path d="M1.32812 1.38525H98.2395V93.0618H1.32812V1.38525Z" fill="black"/>
</g>
</g>
</g>
<mask id="mask3_2_12278" style="mask-type:luminance" maskUnits="userSpaceOnUse" x="27" y="23" width="47" height="48">
<path d="M27.9648 23.4609H73.6791V70.7602H27.9648V23.4609Z" fill="white"/>
</mask>
<g mask="url(#mask3_2_12278)">
<path d="M50.9278 70.9758C38.2658 70.9758 27.9648 60.3177 27.9648 47.2166C27.9648 34.119 38.2658 23.4609 50.9278 23.4609C63.5865 23.4609 73.8875 34.119 73.8875 47.2166C73.8875 60.3177 63.5865 70.9758 50.9278 70.9758ZM50.9278 26.9064C40.1011 26.9064 31.2916 36.0145 31.2916 47.2166C31.2916 58.4187 40.1011 67.5303 50.9278 67.5303C61.7512 67.5303 70.5607 58.4187 70.5607 47.2166C70.5607 36.0145 61.7512 26.9064 50.9278 26.9064Z" fill="white"/>
<path d="M51.4014 59.548C51.2262 59.4761 51.0344 59.3632 51.0344 58.8876C51.0344 58.6892 51.0641 58.4599 51.1303 58.1793L54.0337 43.6344C54.0965 43.2923 54.1296 42.933 54.1296 42.5772C54.1296 41.6397 53.8485 40.9211 53.2963 40.449C52.0595 39.3951 49.8935 39.6038 46.2857 40.863L45.9385 40.9861L45.793 42.8611H46.3981C48.2334 42.8611 48.6766 43.0117 48.7692 43.0562C48.8915 43.1178 48.961 43.1896 48.961 43.4052C48.961 43.5215 48.9477 43.6549 48.9147 43.8055C48.8816 44.0005 48.8386 44.2298 48.7956 44.4761L46.1369 57.8372C46.0145 58.5112 45.9484 59.0895 45.9484 59.548C45.9484 60.6121 46.246 61.4366 46.828 61.9909C47.3935 62.5315 48.1739 62.8087 49.1428 62.8087C50.2738 62.8087 51.795 62.4836 53.7857 61.8164L54.1428 61.6967L54.285 59.7977H53.6832C52.3207 59.7977 51.6924 59.6609 51.4014 59.548Z" fill="white"/>
<path d="M55.2172 32.4423C54.6715 31.9017 53.9672 31.6279 53.1305 31.6279C52.2608 31.6279 51.5267 31.9222 50.948 32.5038C50.366 33.0855 50.0684 33.8725 50.0684 34.8407C50.0684 35.7303 50.3528 36.4694 50.9083 37.0442C51.4639 37.6225 52.1748 37.9133 53.0181 37.9133C53.8812 37.9133 54.6087 37.6019 55.1874 36.9963C55.7661 36.3907 56.0571 35.6038 56.0571 34.656C56.0571 33.7322 55.776 32.9863 55.2172 32.4423Z" fill="white"/>
</g>
</svg>
