<svg width="99" height="93" viewBox="0 0 99 93" fill="none" xmlns="http://www.w3.org/2000/svg">
<mask id="mask0_205_10" style="mask-type:luminance" maskUnits="userSpaceOnUse" x="0" y="0" width="99" height="93">
<path d="M98.2011 0H0V92.8467H98.2011V0Z" fill="white"/>
</mask>
<g mask="url(#mask0_205_10)">
<mask id="mask1_205_10" style="mask-type:luminance" maskUnits="userSpaceOnUse" x="0" y="0" width="98" height="93">
<path d="M0.544922 0.73584H97.3538V92.4124H0.544922V0.73584Z" fill="white"/>
</mask>
<g mask="url(#mask1_205_10)">
<mask id="mask2_205_10" style="mask-type:luminance" maskUnits="userSpaceOnUse" x="0" y="0" width="98" height="93">
<path d="M19.5925 0.73584H78.2632C83.3161 0.73584 88.1607 2.81271 91.7321 6.50797C95.3035 10.2032 97.3108 15.2158 97.3108 20.4439V72.7044C97.3108 77.929 95.3035 82.9416 91.7321 86.6403C88.1607 90.3355 83.3161 92.4124 78.2632 92.4124H19.5925C14.5429 92.4124 9.69836 90.3355 6.12363 86.6403C2.5522 82.9416 0.544922 77.929 0.544922 72.7044V20.4439C0.544922 15.2158 2.5522 10.2032 6.12363 6.50797C9.69836 2.81271 14.5429 0.73584 19.5925 0.73584Z" fill="white"/>
</mask>
<g mask="url(#mask2_205_10)">
<path d="M0.544922 0.73584H97.4563V92.4124H0.544922V0.73584Z" fill="black"/>
</g>
</g>
</g>
<mask id="mask3_205_10" style="mask-type:luminance" maskUnits="userSpaceOnUse" x="24" y="21" width="50" height="50">
<path d="M24 21H74V71H24V21Z" fill="white"/>
</mask>
<g mask="url(#mask3_205_10)">
<path fill-rule="evenodd" clip-rule="evenodd" d="M56.3119 57.7623L68.6255 70.0715C69.8444 71.2901 71.8244 71.2901 73.0434 70.0707C74.2623 68.8513 74.2619 66.8713 73.0429 65.6524L60.7376 53.3518C63.2131 49.9845 64.6764 45.8269 64.6764 41.3296C64.6764 30.1094 55.5669 21 44.3467 21C33.1266 21 24.0176 30.1094 24.0176 41.3296C24.0176 52.5498 33.1266 61.6588 44.3467 61.6588C48.8182 61.6588 52.9542 60.2123 56.3119 57.7623ZM44.3467 27.2485C52.1185 27.2485 58.4283 33.5578 58.4283 41.3296C58.4283 49.1009 52.1185 55.4107 44.3467 55.4107C36.5754 55.4107 30.2661 49.1009 30.2661 41.3296C30.2661 33.5578 36.5754 27.2485 44.3467 27.2485Z" fill="white"/>
</g>
</svg>
